<svg preserveAspectRatio="none" viewBox="0 0 139 72" fill="none" xmlns="http://www.w3.org/2000/svg">
<path d="M4.11965 0.0676254C6.4508 0.0314315 9.50656 0.0211051 11.8289 0.0280393C12.5567 0.0300751 12.1882 0.0684533 12.6906 0.0717918C13.6732 0.078515 14.5887 0.0540256 15.5597 0.0640392C15.8815 0.0676379 15.481 0.128869 15.8184 0.131501C17.6675 0.146049 19.4169 0.120437 21.2901 0.122466C30.5169 0.134926 39.5866 0.123703 48.9263 0.122781C52.0058 0.121922 55.7493 0.185064 58.9302 0.141419C59.3015 0.136162 59.0801 0.0618053 59.1508 0.0553728C60.2588 -0.0439432 59.8904 0.109495 60.6139 0.127497C63.4854 0.198361 66.6785 0.198856 69.4419 0.160249C70.6176 0.1436 69.4388 -0.0120207 70.6226 0.0735569C70.7048 0.0793801 70.4065 0.16551 70.7289 0.173742C71.4601 0.19232 72.8473 0.173468 73.414 0.178848C74.5061 0.189773 74.6868 0.188518 75.7198 0.186995C77.1319 0.185545 78.8115 0.225984 80.3266 0.202472C80.65 0.197118 80.2219 0.10622 80.7376 0.0891586C81.2538 0.072086 82.6195 0.0760409 83.0799 0.0968241C83.5404 0.117595 83.3443 0.191448 83.4258 0.208058C84.0963 0.348932 85.6761 0.148648 85.8792 0.142812C89.5851 0.0495244 92.7631 0.156651 96.2418 0.150155C98.8826 0.144499 101.706 0.0990961 104.219 0.0994554C107.213 0.100268 109.75 0.151753 112.658 0.137376C112.965 0.135943 112.606 0.0137106 112.981 0.0115965C116.963 -0.0108035 120.918 -0.00593389 124.884 0.0737413C125.282 0.0818781 124.769 0.194418 125.167 0.209331C127.599 0.297311 131.448 0.521315 132.893 0.022798C134.541 0.0397435 136.542 0.0568652 138.016 0.156513C138.068 0.160068 138.115 0.163816 138.157 0.167716L138.647 0.166228L138.649 0.659424C138.582 1.37261 138.472 0.61002 138.524 1.71294C138.536 1.97627 138.646 1.63382 138.656 2.02874C138.698 3.69145 138.664 5.50803 138.724 7.15289C138.736 7.48746 138.836 7.3961 138.854 7.4909C139.001 8.2876 138.761 9.61388 138.744 9.90302C138.615 12.1047 138.668 13.7125 138.666 15.7635C138.666 16.2395 138.802 15.6769 138.806 16.1348C138.829 18.5102 138.82 20.9708 138.76 23.2966C138.747 23.814 138.629 23.3382 138.616 23.5854C138.562 24.6755 138.785 24.9172 138.738 25.9626C138.728 26.183 138.627 26.0589 138.616 26.0991C138.442 26.7283 138.689 27.275 138.695 27.4369C138.771 29.4841 138.513 30.7927 138.55 32.7705C138.555 33.0071 138.684 32.4736 138.689 33.1387C138.728 37.5696 138.695 42.2558 138.592 46.6417C138.576 47.3237 138.478 46.8369 138.466 46.8798C138.277 47.5792 138.53 48.0317 138.54 48.254C138.609 50.0082 138.396 51.6468 138.699 52.8387C138.616 58.7997 138.71 64.7388 138.61 70.6594V71.1117H138.157C138.157 71.1117 138.157 71.1117 138.157 71.1117C136.699 71.087 135.242 71.0504 133.787 70.9966C133.693 70.9934 133.861 70.8678 133.674 70.862C131.424 70.7914 131.856 70.9867 130.367 71.2252C129.992 71.2851 128.851 70.9968 128.75 70.9757C128.382 70.8979 128.763 70.7112 128.64 70.6961C127.621 70.5778 127.787 71.1952 126.412 71.1952C126.369 71.1941 126.55 71.0806 126.434 71.0693C126.076 71.0338 125.72 71.0788 125.37 71.0397C124.567 70.9491 124.281 70.6495 123.054 70.8238C122.899 70.8464 123.136 71.1961 121.908 71.1792C121.419 71.1722 119.253 71.1776 118.646 71.1549C118.039 71.1321 118.456 71.0198 118.412 71.015C116.779 70.8661 117.398 70.8046 116.58 70.5848C115.761 70.366 115.988 70.888 115.654 70.9462C115.32 71.0042 114.122 70.8816 113.828 70.8391C113.534 70.7965 113.901 70.7254 113.639 70.7013C111.904 70.5442 112.878 70.9598 112.306 71.0424C110.958 71.2375 109.909 70.8513 108.675 70.8136C108.341 70.8034 108.614 70.8911 108.317 70.8992C107.139 70.9302 106.431 70.8102 105.092 70.9198C104.873 70.9377 103.79 71.1677 103.089 70.9984C102.99 70.974 103.272 70.8786 102.77 70.8571C102.021 70.8249 100.67 70.8039 99.8646 70.8356C99.2698 70.8589 99.9516 71.0158 99.2028 70.9669C98.8701 70.9451 99.4868 70.8536 98.8617 70.8203C98.2398 70.7871 96.6499 70.7909 96.0449 70.7939C95.441 70.797 95.7715 70.9154 95.7227 70.9233C95.4274 70.9689 94.2684 71.0253 94.166 71.0251C88.9999 71.0364 84.236 70.8378 79.2061 70.9008C78.8114 70.9055 79.0743 71.0272 79.0141 71.0292C77.6628 71.0792 78.7282 70.7567 77.7842 70.6486C77.9206 70.8949 77.3634 70.8501 76.4115 70.8767C75.9529 70.8897 76.2027 70.9848 76.1608 70.9945C75.4806 71.1383 75.0069 70.9517 74.8849 70.9137C74.4344 70.7736 73.9442 70.9386 73.6376 70.8451C73.3312 70.7524 74.0363 70.6151 73.1235 70.6169C72.8674 70.7042 73.5452 70.9327 72.8521 70.9693C70.237 71.107 65.3555 70.9251 63.2528 70.9064C61.1544 70.887 60.4766 70.9023 59.2538 70.871C57.045 70.8147 57.8545 70.9789 56.483 71.0522C55.1076 71.1252 55.7762 70.7257 55.5785 70.6396C55.3844 70.5536 55.1725 70.6421 54.931 70.5949C54.6904 70.5479 55.2114 70.4893 54.6454 70.4718C54.0791 70.4546 52.5308 70.6073 52.3301 70.6962C51.9057 70.8848 52.6034 71.0834 51.105 71.0124C51.0188 71.0082 51.2985 70.9045 50.9685 70.8938C48.3475 70.8123 45.6247 70.8062 43.0069 70.7363C42.647 70.7265 42.9688 70.6138 42.7594 70.6069C40.5775 70.5353 41.3574 70.7251 40.1616 70.9338C40.4301 70.6551 39.7688 70.4845 38.1129 70.4841C37.1175 70.4836 37.2888 70.6042 36.645 70.689C36.4518 70.7145 35.7474 70.632 35.6198 70.6884C35.199 70.8725 35.8624 71.0791 34.1551 70.9951C34.0802 70.9911 34.3187 70.891 34.0599 70.8847C32.3869 70.8438 32.1867 71.0345 30.3782 71.0545C28.9607 71.0701 26.4397 70.9522 24.8256 70.9324C24.8596 70.6358 23.335 70.7044 22.7166 70.9061C21.6691 70.8968 20.5378 70.907 19.5253 70.8783C19.1769 70.8686 19.4058 70.785 19.3619 70.7759C18.6881 70.6337 18.2327 70.8274 18.0066 70.8346C15.5562 70.9053 13.5596 70.7603 11.221 70.8974C11.138 70.9024 11.0035 71.0956 10.3783 70.9535C10.3379 70.9438 11.1103 70.8566 10.0102 70.8488C8.90987 70.8405 6.83566 70.7376 5.30812 70.824C4.93849 70.845 4.00346 70.9955 3.25307 70.8761C3.15311 70.86 3.26249 70.8067 3.11818 70.7769C2.65167 70.6822 2.39695 70.8694 1.84865 70.7102C1.50348 70.6101 0.923723 70.5266 0.157227 70.5062L0.310458 70.6594C0.32252 70.2082 0.3128 69.6923 0.272547 69.1215C0.269317 69.0724 0.123854 68.7077 0.126363 68.2233C0.130339 67.4499 0.160326 66.352 0.159326 65.5446C0.158824 65.1579 0.07041 65.4054 0.0687979 65.3383C0.0210525 62.7386 0.10062 60.8884 0.133371 58.1035C0.139193 57.593 0.0260926 56.1259 0.116202 55.1376C0.21386 54.0523 0.620552 55.1675 0.518003 52.6731C0.475255 51.667 -0.0244261 50.3932 0.232913 48.5852C0.169648 45.0786 0.292758 41.8357 0.20586 38.3194C0.201955 38.1613 0.0755077 37.6612 0.0776627 37.2895C0.0808975 36.7376 0.139459 36.4347 0.143282 36.0406C0.160677 34.3893 0.112107 32.8783 0.120398 31.2862C0.123309 30.6817 0.180658 30.8931 0.183644 30.1722C0.18638 29.4517 0.112291 28.9713 0.148158 27.9949C0.175616 27.2575 0.323553 26.5203 0.33842 25.5415C0.193713 25.5042 0.196223 24.832 0.158641 23.6372C0.151401 23.4076 0.102069 23.6539 0.0961355 23.5452C0.0711379 23.1031 0.11198 22.6939 0.0849206 22.2741C0.0784453 22.1719 0.0308062 22.1671 0.0228993 22.0836C-0.0456846 21.3737 0.0623871 20.2041 0.0803013 20.0032C0.149832 19.2333 0.0897775 18.8735 0.117036 18.283C0.143853 17.6934 0.177213 18.575 0.193201 17.8863C0.22585 16.4587 0.216751 14.6245 0.217782 13.1747C0.21786 12.5962 0.161105 12.9909 0.159784 12.9081C0.145865 11.7119 0.203914 10.5023 0.0948862 9.839C0.376319 9.00963 0.0677346 9.11767 0.125113 7.40784C0.129752 7.27314 0.258095 7.10181 0.278016 7.6189C0.298101 8.13596 0.258269 8.92005 0.289784 9.63746C0.296812 9.80737 0.425355 10.7806 0.433942 10.9133C0.498626 11.9535 0.29391 12.1009 0.282503 12.1559C0.160878 12.7799 0.302021 13.9692 0.313266 14.2824C0.361662 15.7151 0.33426 16.9323 0.370602 18.1306C0.394208 18.9144 0.541026 18.991 0.539316 19.6065C0.534823 21.6523 0.322035 22.3664 0.514839 24.2942C0.556247 24.7076 0.725402 24.2968 0.597782 25.778C0.590119 25.8711 0.469158 26.9708 0.550933 27.6061C0.561303 27.6859 0.612433 27.6834 0.617218 27.7886C0.648406 28.4939 0.609461 28.9643 0.632723 29.7326C0.656048 30.5008 0.690876 31.4246 0.677059 32.3018C0.668962 32.8304 0.571407 33.5087 0.547422 33.7618C0.47831 34.4763 0.598756 35.2424 0.512803 35.6851C0.425562 36.1315 0.290564 35.2588 0.234377 36.4294C0.378504 36.4727 0.52677 36.5723 0.672308 36.642C0.679078 39.2073 0.64102 41.7314 0.657463 44.3053C0.659725 44.6243 0.741112 44.298 0.745858 44.6401C0.765915 46.0833 0.711291 47.344 0.74167 48.8407C0.765516 49.9992 0.863208 51.2696 0.893079 52.481C0.709788 53.221 0.780067 55.0187 0.768302 56.3246C0.764103 56.782 0.712606 56.7514 0.696964 57.0768C0.638896 58.3041 0.807981 57.729 0.836371 58.0654C0.958806 59.509 0.568332 59.6325 0.581726 61.3345C0.582002 61.4246 0.797612 62.5268 0.81185 62.6786C0.902365 63.6431 0.738286 62.8382 0.724615 63.4419C0.699639 64.544 0.649827 65.3099 0.717677 66.603C0.737523 66.9801 0.877876 67.8846 0.774429 68.6168C0.760842 68.7132 0.687753 68.6599 0.683715 68.7374C0.626582 69.9274 0.783431 70.1349 0.882681 70.6594L0.157227 69.934C0.251318 69.9162 0.355551 69.9003 0.477558 69.8878C1.27968 69.8054 2.51851 69.9613 2.77065 70.0076C3.43021 70.1264 2.26524 70.0608 2.22951 70.0728C1.80989 70.2147 2.71343 70.1881 3.40382 70.1984C3.50376 70.4292 4.46924 70.4143 4.11952 70.2082C4.07975 70.1857 3.54244 70.2086 3.40382 70.1984C4.00985 69.9704 5.07087 69.9352 6.24281 70.147C6.79141 70.2465 6.27277 70.3654 7.93924 70.3194C8.69553 70.2986 8.40329 70.1358 9.07071 70.0894C10.5955 69.9826 12.5769 70.1309 14.1488 70.1029C14.7194 70.0925 14.1636 70.002 14.5535 69.9916C15.5883 69.9633 16.5008 70.0301 17.5401 69.9914C17.6342 69.9877 17.4042 69.8908 17.7273 69.8885C20.1773 69.8686 22.3105 69.9251 24.8685 69.9196C26.1044 69.9169 28.314 69.8541 29.5943 69.8614C31.8133 69.8733 34.5431 70.0179 36.4387 69.9768C37.675 69.9501 37.4038 69.8452 37.9336 69.7717C38.9558 69.6285 40.7653 69.8742 41.009 69.9133C41.0164 69.9146 39.9526 69.9422 40.5202 69.9956C40.8503 70.109 40.997 69.9138 41.009 69.9133C41.169 69.9381 43.2943 69.9577 43.7163 69.9361C43.9456 69.9244 43.8173 69.8226 43.9369 69.8183C46.7787 69.7195 49.6255 69.6839 52.5078 69.7255C52.5585 69.7275 52.4821 69.8448 52.6014 69.848C54.2701 69.8966 55.3385 69.7505 56.7147 69.6607C58.0907 69.5711 59.1819 69.5964 59.9965 69.7998C61.0347 69.7716 62.5242 69.8595 63.3814 69.9136C64.2385 69.9677 64.3581 69.7325 64.4335 69.7277C66.7858 69.5735 68.1456 69.7051 70.586 69.7218C71.7462 69.73 74.0477 69.691 75.3039 69.6623C76.2967 69.6391 76.8948 69.6946 77.8096 69.6567C77.9334 69.6516 77.8083 69.5443 77.8461 69.5401C78.8671 69.4091 78.3764 69.6734 78.5872 69.7201C79.3514 69.8898 79.8236 69.9809 81.131 69.8984C81.4326 69.8796 82.311 69.4967 82.8608 69.4731C83.5755 69.4433 83.3057 69.5809 84.0541 69.5464C84.1182 69.5435 84.1048 69.4589 84.5667 69.4617C86.7107 69.4737 89.0482 69.5193 91.2762 69.5072C91.5805 69.5058 91.1903 69.3707 91.6301 69.3665C93.6934 69.3467 95.9549 69.3477 97.965 69.4088C98.4598 69.4243 98.1497 69.5207 98.257 69.549C98.9164 69.7205 99.8515 69.4688 100.006 69.4637C103.686 69.3378 106.503 69.5627 110.254 69.4502C110.458 69.4437 112.03 69.17 112.731 69.4027C112.779 69.4181 113.473 69.6565 114.087 69.4926C114.125 69.4823 113.692 69.3597 114.447 69.3715C115.201 69.3834 116.415 69.3 117.452 69.4347C117.781 69.4771 118.557 69.7158 119.536 69.5245C119.6 69.5113 121.112 69.0787 121.651 69.3761C121.739 69.4251 121.647 69.7404 122.816 69.5782C123.039 69.5467 122.634 69.4766 123.222 69.4323C124.124 69.3641 125.318 69.4481 126.426 69.3069C126.62 69.2819 127.442 69.0671 128.102 69.2296C128.206 69.255 128.009 69.3606 128.358 69.3723C130.015 69.4283 131.75 69.3573 133.433 69.43C134.029 69.4556 133.724 69.6264 134.345 69.6721C134.967 69.7178 136.218 69.7617 136.868 69.6836C137.519 69.6055 136.808 69.3333 137.782 69.3115C137.907 69.3087 138.032 69.3062 138.157 69.3038L136.802 70.6594C136.724 66.5517 136.876 62.4793 136.901 58.3754C136.904 57.7482 136.807 58.2682 136.805 57.3439C136.8 53.9363 136.714 48.053 136.922 45.0961C137.088 42.7269 137.211 45.7084 137.279 43.898C137.311 43.0243 136.999 42.0792 136.99 41.8683C136.892 39.8081 137.032 38.3763 136.992 36.522C136.983 36.139 136.857 36.5146 136.851 36.1887C136.831 35.0756 136.888 33.9056 136.88 32.8419C136.875 32.3647 136.779 32.4526 136.788 32.0135C136.806 30.9629 136.848 30.0338 136.939 29.0095C136.947 28.9161 137.065 29.5456 137.07 28.7683C137.079 27.5102 137.169 25.9485 137.08 24.5011C137.054 24.0716 136.837 24.0548 136.988 23.1316C137.02 22.9379 137.279 23.185 137.056 22.1096C137.019 21.9287 136.721 20.1222 136.917 19.2357C136.968 19.0018 137.181 18.4049 137.148 17.8884C137.143 17.8183 137.027 18.0989 137.017 17.671C136.982 16.1627 136.997 14.582 136.965 13.0324C136.956 12.6186 136.836 13.2349 136.827 12.6182C136.801 10.9223 136.836 8.80493 136.877 7.14654C136.892 6.53513 136.988 6.95775 136.999 6.91327C137.172 6.19784 136.941 5.77484 136.929 5.53741C136.852 4.06063 136.963 2.9361 136.938 1.57488C136.931 1.19921 136.821 1.46559 136.812 1.39079C136.719 0.615275 136.913 1.19298 136.936 0.702072C136.937 0.687873 136.937 0.673657 136.938 0.659424L138.157 1.87855C136.793 1.81585 135.277 1.82081 133.901 1.83068C133.39 1.83449 133.964 1.96141 133.506 1.96328C130.792 1.9766 127.972 1.9549 125.324 1.87866C124.825 1.86409 125.139 1.77071 125.035 1.74882C124.319 1.59614 123.269 1.79851 123.027 1.81702C121.929 1.90237 121.503 1.81802 120.533 1.83029C115.795 1.89083 109.945 1.81367 105.473 1.76459C99.6452 1.70008 95.123 1.60175 89.5656 1.60054C89.2124 1.6003 89.5686 1.7129 89.2641 1.714C85.3331 1.72238 81.463 1.66167 77.5241 1.67254C77.2009 1.67316 77.6668 1.77528 77.148 1.77942C76.0839 1.78856 74.7359 1.77515 73.6599 1.73785C73.1352 1.71991 73.8391 1.63996 73.3108 1.62381C72.0809 1.58618 70.7624 1.57305 69.4991 1.5819C68.9614 1.58579 69.7726 1.68782 69.0738 1.685C64.3135 1.66826 59.6384 1.65185 54.828 1.50794C54.4982 1.49796 54.2089 1.31564 53.5077 1.34711C53.4549 1.39679 53.4577 1.4555 53.4347 1.50871C46.505 1.49594 39.646 1.39381 32.6969 1.34359C32.4039 1.34137 32.9102 1.4256 32.343 1.42144C29.0599 1.39802 25.8718 1.39361 22.5136 1.29726C22.1804 1.28786 22.3514 1.1606 21.3694 1.17456C21.1963 1.17715 19.7174 1.18557 19.335 1.21006C19.2831 1.21376 19.5529 1.27365 19.0763 1.27203C16.307 1.26166 13.4049 1.22704 10.6403 1.17646C10.1941 1.16825 10.6693 1.11585 10.3515 1.1097C8.09723 1.0679 5.64526 1.09293 3.49123 1.03427C2.0494 0.995706 2.5832 0.912697 1.81703 0.826701C1.70866 0.814648 0.815837 0.810548 0.769667 0.762825C0.651132 0.643008 1.08359 0.510659 0.906142 0.382747C0.877188 0.361544 0.157381 0.377672 0.157227 0.354184C0.157227 0.354179 0.157227 0.354174 0.157227 0.354169C0.157272 0.347239 0.2198 0.336882 0.380872 0.320956C0.43033 0.316317 1.29724 0.28941 1.51076 0.265137C1.65942 0.248346 1.39153 0.201092 1.69484 0.178601C1.99813 0.155942 2.3314 0.195109 2.83425 0.167255C3.33687 0.13886 3.11586 0.0833239 4.11965 0.0676254ZM67.2407 70.1571C68.0344 70.27 68.1515 69.8531 67.2931 69.9541C67.2516 69.9595 67.1998 70.1516 67.2407 70.1571ZM0.438486 41.717C0.321786 42.7546 0.498841 43.4646 0.58889 42.7326C0.677743 42.0008 0.473312 41.4009 0.438486 41.717ZM0.334699 30.9577C0.250805 32.1703 0.601564 32.3612 0.52625 31.0624C0.521966 30.9869 0.339489 30.8868 0.334699 30.9577ZM5.37014 0.810778C5.35918 0.808327 4.71739 0.804619 4.70205 0.806961C4.3603 0.863225 5.64364 0.871738 5.37014 0.810778ZM0.239618 20.2809C0.197829 20.6595 0.247476 21.7494 0.299815 21.2791C0.34145 20.9004 0.291013 19.8094 0.239618 20.2809ZM108.642 70.5974C108.654 70.604 109.114 70.6099 109.105 70.5726C109.074 70.4523 108.434 70.4864 108.642 70.5974ZM0.219305 2.13451C0.215172 4.81556 -0.00151811 6.44111 0.0284521 3.52148C0.0333403 2.99276 0.0928449 4.66099 0.112423 3.98803C0.146227 2.75668 0.0207261 1.93905 0.0895868 0.682488C0.101314 0.454995 0.219405 1.98158 0.219591 2.13928C0.219496 2.13768 0.219401 2.13611 0.219305 2.13451ZM67.6978 70.6568C67.7136 70.6623 68.3506 70.6676 68.3659 70.6621C68.7108 70.5296 67.4276 70.5194 67.6978 70.6568ZM135.491 70.8739C135.526 70.8866 137.004 70.8984 137.052 70.8868C137.824 70.6539 134.835 70.6293 135.491 70.8739ZM24.8002 70.9245C24.1052 71.0405 23.2738 71.0521 22.7198 70.9063C23.4105 70.9147 24.1058 70.9166 24.8002 70.9245Z" fill="#EDECE7"/>
</svg>
